<svg width="48" height="48" viewBox="0 0 48 48" fill="none" xmlns="http://www.w3.org/2000/svg">
<path fill-rule="evenodd" clip-rule="evenodd" d="M38 42H10C7.79086 42 6 40.2091 6 38V10C6 7.79086 7.79086 6 10 6H38C40.2091 6 42 7.79086 42 10V38C42 40.2091 40.2091 42 38 42ZM31.6578 37H37V26.0256C37 21.3822 34.3678 19.1371 30.6913 19.1371C27.013 19.1371 25.465 22.0015 25.465 22.0015V19.6667H20.3167V37H25.465V27.9011C25.465 25.4631 26.5873 24.0123 28.7354 24.0123C30.7099 24.0123 31.6578 25.4064 31.6578 27.9011V37ZM11 14.1985C11 15.9648 12.421 17.397 14.1747 17.397C15.9283 17.397 17.3485 15.9648 17.3485 14.1985C17.3485 12.4322 15.9283 11 14.1747 11C12.421 11 11 12.4322 11 14.1985ZM16.8847 37H11.5163V19.6667H16.8847V37Z" fill="white"/>
</svg>
