<svg width="48" height="48" viewBox="0 0 48 48" fill="none" xmlns="http://www.w3.org/2000/svg">
<g clip-path="url(#clip0_1_16)">
<path d="M6.99802 34.8019L0 12.2595H6.51361L10.6398 28.47L15.1292 12.2595H21.6601L26.1496 28.47L30.2757 12.2595H36.7893L29.7135 34.8019H22.776L18.399 18.5222L13.9355 34.8019H6.99802Z" fill="white"/>
<path d="M44.2112 35.0701C46.3037 35.0701 48 33.3738 48 31.2813C48 29.1888 46.3037 27.4925 44.2112 27.4925C42.1187 27.4925 40.4224 29.1888 40.4224 31.2813C40.4224 33.3738 42.1187 35.0701 44.2112 35.0701Z" fill="white"/>
<path d="M44.2112 19.5776C46.3037 19.5776 48 17.8813 48 15.7888C48 13.6963 46.3037 12 44.2112 12C42.1187 12 40.4224 13.6963 40.4224 15.7888C40.4224 17.8813 42.1187 19.5776 44.2112 19.5776Z" fill="white"/>
</g>
<defs>
<clipPath id="clip0_1_16">
<rect width="48" height="48" fill="white"/>
</clipPath>
</defs>
</svg>
