<?xml version="1.0" encoding="UTF-8"?>
<svg id="Layer_1" data-name="Layer 1" xmlns="http://www.w3.org/2000/svg" viewBox="0 0 350 350">
  <defs>
    <style>
      .cls-1 {
        fill: #495057;
      }

      .cls-1, .cls-2 {
        stroke-width: 0px;
      }

      .cls-2 {
        fill: #fff;
      }
    </style>
  </defs>
  <rect class="cls-1" width="350" height="350"/>
  <g>
    <path class="cls-2" d="m124.23,185.6c-10.66,0-19.33,8.67-19.33,19.33s8.67,19.33,19.33,19.33,19.33-8.67,19.33-19.33-8.67-19.33-19.33-19.33Zm0,32.8c-7.43,0-13.47-6.04-13.47-13.47s6.04-13.47,13.47-13.47,13.47,6.04,13.47,13.47-6.04,13.47-13.47,13.47Z"/>
    <path class="cls-2" d="m241.49,232.04c-3.65,2.11-6.27,5.52-7.37,9.61-1.09,4.09-.54,8.35,1.57,12,2.11,3.65,5.52,6.27,9.61,7.37,1.35.36,2.73.55,4.13.55,2.74,0,5.44-.72,7.87-2.12,7.55-4.36,10.15-14.06,5.79-21.61-4.36-7.55-14.06-10.15-21.61-5.79Zm17.53,16.28c-.69,2.57-2.34,4.72-4.64,6.05-4.76,2.75-10.86,1.11-13.61-3.65-1.33-2.3-1.68-4.98-.99-7.56.69-2.57,2.34-4.72,4.64-6.05,1.51-.87,3.22-1.33,4.96-1.33,3.44,0,6.8,1.79,8.64,4.98,1.33,2.3,1.68,4.98.99,7.56Z"/>
    <path class="cls-2" d="m124.23,195.36c-5.27,0-9.56,4.29-9.56,9.56s4.29,9.56,9.56,9.56,9.56-4.29,9.56-9.56-4.29-9.56-9.56-9.56Zm0,13.27c-2.04,0-3.7-1.66-3.7-3.7s1.66-3.7,3.7-3.7,3.7,1.66,3.7,3.7-1.66,3.7-3.7,3.7Z"/>
    <path class="cls-2" d="m188.54,232.04h0c-3.65-2.11-7.92-2.67-12-1.57-4.09,1.09-7.5,3.71-9.61,7.36-2.11,3.65-2.67,7.92-1.57,12,1.09,4.09,3.71,7.5,7.36,9.61,2.43,1.4,5.13,2.12,7.87,2.12,1.38,0,2.76-.18,4.13-.55,4.09-1.09,7.5-3.71,9.61-7.37,2.11-3.65,2.67-7.92,1.57-12-1.09-4.09-3.71-7.5-7.36-9.61Zm.72,18.68c-1.33,2.3-3.48,3.95-6.05,4.64-2.57.69-5.26.34-7.56-.99-2.3-1.33-3.95-3.48-4.64-6.05-.69-2.57-.34-5.26.99-7.56s3.48-3.95,6.05-4.64c.85-.23,1.72-.34,2.6-.34,1.74,0,3.45.46,4.95,1.33,2.3,1.33,3.95,3.48,4.64,6.05.69,2.57.34,5.26-.99,7.56Z"/>
    <path class="cls-2" d="m271.56,232.95c-5.97-10.34-18.11-15.16-29.53-11.71-1.99.6-4.09-.04-5.34-1.63h0s-6.54-8.33-6.54-8.33c-.01-.02-.03-.03-.04-.05l15.84-27.43s0,0,0,0l3.91-6.78c7.05-12.21,5.59-27.58-3.65-38.24-.62-.72-1.55-1.09-2.49-1-.94.09-1.78.63-2.26,1.45l-21.48,37.2-2.92-2.92,6.37-6.37c.93-.93,1.44-2.17,1.44-3.48s-.51-2.55-1.44-3.48l-6.43-6.43,6.37-6.37c1.92-1.92,1.92-5.05,0-6.97l-6.43-6.43,6.38-6.37c1.92-1.92,1.92-5.05,0-6.97l-6.29-6.29,6.51-6.51c1.92-1.92,1.92-5.05,0-6.97l-12.09-12.09c-.58-.58-1.38-.89-2.2-.85-.82-.04-1.62.27-2.2.85l-7.71,7.71-6.24-6.24c-1.92-1.92-5.05-1.92-6.97,0l-6.43,6.43-6.37-6.37c-.41-.41-.88-.74-1.4-.98v-5.7c0-2.69-2.19-4.88-4.88-4.88h-71.54c-2.69,0-4.88,2.19-4.88,4.88v22.87h-10.73c-2.69,0-4.88,2.19-4.88,4.88v119.14c0,2.69,2.19,4.88,4.88,4.88h7.62v29.72c0,1.61.91,3.03,2.36,3.72.55.26,1.14.39,1.75.39.94,0,1.86-.33,2.62-.96l12.89-10.77c.67-.56,1.05-1.38,1.05-2.25v-17.28c4.85,2.37,10.3,3.7,16.06,3.7,7.49,0,14.57-2.29,20.48-6.26h12.52c-2.39,5.38-2.86,11.37-1.27,17.14,1.83,6.65,6.15,12.17,12.17,15.54,3.87,2.17,8.1,3.2,12.29,3.2,8.95,0,17.73-4.7,22.54-13.02l12.06-20.89,12.06,20.89c4.81,8.33,13.59,13.02,22.54,13.02,4.19,0,8.42-1.03,12.29-3.2,6.02-3.37,10.34-8.89,12.17-15.54,1.83-6.65.94-13.6-2.51-19.58Zm-27.27-86.93c5.27,8.44,5.57,19.25.49,28.07l-3.13,5.43s0,0,0,0l-22.94,39.73-12.52-7.23,38.1-65.99Zm-41,59.3l-18.03-31.24c-5.09-8.81-4.79-19.62.49-28.07l25.89,44.85-8.34,14.45Zm-31.37-108.14l4.29,4.29c1.92,1.92,5.05,1.92,6.97,0l6.43-6.43,6.24,6.24c.92.93,2.18,1.45,3.48,1.44,1.32,0,2.55-.51,3.48-1.44l6.43-6.43,9.49,9.49-6.51,6.51c-1.92,1.92-1.92,5.05,0,6.97l6.29,6.29-6.37,6.37c-.93.92-1.45,2.18-1.44,3.48,0,1.32.51,2.55,1.44,3.48l6.43,6.43-6.37,6.37c-1.92,1.92-1.92,5.05,0,6.97l6.43,6.43-6.37,6.37c-1.92,1.92-1.92,5.05,0,6.97l4.69,4.69-1.92,3.33-11.11-19.24v-54.4c0-2.69-2.19-4.88-4.88-4.88h-27.11v-9.3Zm-5.86-12.59v6.67l-38.81,38.81c-1.14,1.14-1.14,3,0,4.14,1.14,1.14,3,1.14,4.14,0l34.67-34.67v12.15l-42.47,42.47h-12.15l10.28-10.28c1.14-1.14,1.14-3,0-4.14-1.14-1.14-3-1.14-4.14,0l-14.43,14.43h-6.67v-6.68l62.91-62.91h6.67Zm-23.19,69.58h-11l34.18-34.18v11l-23.19,23.19Zm23.19-14.9v14.9h-14.9l14.9-14.9Zm-14.96-54.68l-54.62,54.62v-12.15l42.47-42.47h12.15Zm-54.62,0h14.9l-14.9,14.9v-14.9Zm0,23.19h0l23.19-23.19h11l-34.18,34.18v-11Zm5.84,146.08l-8.95,7.48v-36.54c2.39,3.7,5.42,6.94,8.95,9.57v19.49Zm49.17-24.33c3.81-4.21,6.68-9.34,8.22-15.09.4-1.57-.55-3.16-2.12-3.56-1.54-.39-3.11.52-3.54,2.05-3.6,13.46-15.86,22.87-29.81,22.87-17.02,0-30.86-13.85-30.86-30.86s13.85-30.87,30.87-30.87c7.45,0,14.65,2.69,20.27,7.59,5.56,4.85,9.21,11.52,10.26,18.78.23,1.6,1.73,2.71,3.32,2.48,1.6-.23,2.71-1.72,2.48-3.32,0,0,0,0,0,0-1.26-8.64-5.6-16.58-12.21-22.35-6.68-5.83-15.25-9.04-24.12-9.04-20.25,0-36.73,16.47-36.73,36.73v24.6h-6.64v-117.19h9.75v42.81c0,2.69,2.19,4.88,4.88,4.88h71.54c2.69,0,4.88-2.19,4.88-4.88v-42.81h26.13v43.28l-9.47-16.4c-.81-1.4-2.6-1.88-4-1.07-.28.16-.54.37-.75.62-9.24,10.66-10.7,26.03-3.65,38.24l17.87,30.95v5.65l-4.7,5.99c-1.25,1.59-3.35,2.23-5.34,1.63-10.07-3.04-20.71.35-27.17,8.29h-9.35Zm46.41,25.78c-5.46,9.46-17.52,12.89-26.89,7.64-4.64-2.6-7.98-6.86-9.39-11.98-1.41-5.13-.72-10.49,1.94-15.09,3.61-6.25,10.14-9.88,17.03-9.88,1.9,0,3.83.28,5.73.85,4.32,1.3,8.89-.12,11.64-3.62l4.97-6.33,12.85,7.42-17.9,31Zm70.54-4.34c-1.41,5.13-4.74,9.38-9.39,11.98-9.36,5.25-21.43,1.82-26.89-7.64l-13.75-23.82,8.29-14.36.41-.24,4.97,6.33h0c2.75,3.5,7.32,4.93,11.64,3.62,8.8-2.66,18.16,1.06,22.77,9.03,2.66,4.6,3.35,9.97,1.94,15.09Z"/>
    <circle class="cls-2" cx="216.38" cy="207.68" r="2.93"/>
  </g>
</svg>