<svg xmlns="http://www.w3.org/2000/svg" viewBox="0 0 379.01 442.22"><defs><style>.cls-1{fill:#495057;}</style></defs><title>hand</title><g id="Layer_2" data-name="Layer 2"><g id="Layer_1-2" data-name="Layer 1"><path class="cls-1" d="M205.29,0c-21.84,0-40,15.3-45.41,35.54a46.26,46.26,0,0,0-17.77-3.95A47.63,47.63,0,0,0,94.73,79V248.75L80.91,234.93a47.46,47.46,0,0,0-67.12,67.12l107.1,107.1c18.57,18.51,44.23,33.07,74.52,33.07h73c60.89,0,110.55-49.66,110.55-110.56V142.14a47.63,47.63,0,0,0-47.38-47.38,46.58,46.58,0,0,0-15.79,3V79a47.63,47.63,0,0,0-47.38-47.38,46.3,46.3,0,0,0-17.77,3.95C245.26,15.3,227.13,0,205.29,0Zm0,31.59a15.52,15.52,0,0,1,15.79,15.79V205.32h31.59V79a15.79,15.79,0,1,1,31.58,0V205.32h31.59V142.14a15.8,15.8,0,0,1,31.59,0V331.66a78.73,78.73,0,0,1-79,79h-73c-20.11,0-37.38-9.81-51.82-24.18L36,279.84a16.05,16.05,0,0,1,22.7-22.7l40.47,41,27.15,27.15V79a15.79,15.79,0,1,1,31.58,0V205.32h31.59V47.38A15.52,15.52,0,0,1,205.29,31.59Z"/></g></g></svg>